<?xml version="1.0" encoding="UTF-8" standalone="no"?>
<!DOCTYPE svg PUBLIC "-//W3C//DTD SVG 1.1//EN" "http://www.w3.org/Graphics/SVG/1.1/DTD/svg11.dtd">
<svg width="100%" height="100%" viewBox="0 0 3000 3000" version="1.1" xmlns="http://www.w3.org/2000/svg" xmlns:xlink="http://www.w3.org/1999/xlink" xml:space="preserve" xmlns:serif="http://www.serif.com/" style="fill-rule:evenodd;clip-rule:evenodd;stroke-linejoin:round;stroke-miterlimit:2;">
    <g transform="matrix(0.970175,0,0,0.970175,9.405057,381.15778)">
        <g transform="matrix(3.293803,0,0,3.460706,-3524.242528,-2837.779173)">
            <path d="M1249.645,1200C1236.478,1200 1223.851,1205.23 1214.541,1214.541C1205.23,1223.851 1200,1236.478 1200,1249.645L1200,1351.424C1200,1378.252 1221.748,1400 1248.576,1400L1248.877,1400C1277.112,1400 1300,1377.112 1300,1348.877L1300,1250.352C1300,1222.543 1277.457,1200 1249.648,1200L1249.645,1200Z" style="fill:rgb(2,0,0);"/>
        </g>
    </g>
    <g transform="matrix(0.970175,0,0,0.970175,9.405057,381.15778)">
        <g transform="matrix(3.293803,0,0,3.460706,-1547.960758,-2837.779173)">
            <path d="M1249.645,1200C1236.478,1200 1223.851,1205.23 1214.541,1214.541C1205.23,1223.851 1200,1236.478 1200,1249.645L1200,1351.424C1200,1378.252 1221.748,1400 1248.576,1400L1248.877,1400C1277.112,1400 1300,1377.112 1300,1348.877L1300,1250.352C1300,1222.543 1277.457,1200 1249.648,1200L1249.645,1200Z" style="fill:rgb(2,0,0);"/>
        </g>
    </g>
    <g transform="matrix(0.970175,0,0,0.970175,9.405057,381.15778)">
        <g transform="matrix(3.293803,0,0,6.921412,-3030.172085,-7336.696905)">
            <path d="M1249.645,1200C1222.227,1200 1200,1211.113 1200,1224.822L1200,1375.712C1200,1389.126 1221.748,1400 1248.576,1400L1248.877,1400C1277.112,1400 1300,1388.556 1300,1374.439L1300,1225.176C1300,1211.272 1277.457,1200 1249.648,1200L1249.645,1200Z" style="fill:rgb(2,0,0);"/>
        </g>
    </g>
    <g transform="matrix(0.970175,0,0,0.970175,9.405057,381.15778)">
        <g transform="matrix(3.293803,0,0,3.460706,-3687.3627,-2747.800818)">
            <g transform="matrix(1,0,0,2,500,-1326)">
                <path d="M1249.645,1200C1222.227,1200 1200,1211.113 1200,1224.822L1200,1375.712C1200,1389.126 1221.748,1400 1248.576,1400L1248.877,1400C1277.112,1400 1300,1388.556 1300,1374.439L1300,1225.176C1300,1211.272 1277.457,1200 1249.648,1200L1249.645,1200Z" style="fill:rgb(2,0,0);"/>
            </g>
            <path d="M1800,1164C1813.935,1076.26 1988.777,1023.124 2039.523,984C2067.955,962.08 2057.542,925.038 2012.48,901.225C1938.474,862.119 1848.477,809.426 1787.483,774C1687.412,715.876 1588.461,664.136 1549.523,685.317C1370.597,782.649 1128.551,924.773 1119,945C1103.714,977.373 1163.447,996.114 1195.232,1019.71C1240.43,1053.265 1278.19,1065.231 1320.659,1038.905C1386.926,997.827 1500.584,908.154 1581.725,890.566C1652.738,875.172 1706.596,938.214 1700,1000L1700,1137" style="fill:rgb(2,0,0);"/>
        </g>
    </g>
    <g transform="matrix(0.970175,0,0,0.970175,9.405057,381.15778)">
        <g transform="matrix(3.293803,0,0,10.382118,-2536.101643,-11835.614637)">
            <path d="M1249.645,1200C1222.227,1200 1200,1207.409 1200,1216.548L1200,1383.808C1200,1392.751 1221.748,1400 1248.576,1400L1248.877,1400C1277.112,1400 1300,1392.371 1300,1382.959L1300,1216.784C1300,1207.514 1277.457,1200 1249.648,1200L1249.645,1200Z" style="fill:rgb(2,0,0);"/>
        </g>
    </g>
</svg>
